HIERARCHY
ROOT Root
{
	OFFSET 0.00000 0.00000 0.00000
	CHANNELS 6 Xposition Yposition Zposition Zrotation Xrotation Yrotation
	JOINT Hip
	{
		OFFSET 0 0 0	
		CHANNELS 3 Zrotation Xrotation Yrotation
		JOINT Tummy
		{
			OFFSET 0 0.04 0	
			CHANNELS 3 Zrotation Xrotation Yrotation
			JOINT ChestBottom
			{
				OFFSET 0 0.194 0	
				CHANNELS 3 Zrotation Xrotation Yrotation
				JOINT ChestTop
				{
					OFFSET 0 0.166 0	
					CHANNELS 3 Zrotation Xrotation Yrotation
					JOINT LeftCollar
					{
						OFFSET 0 0.1 0	
						CHANNELS 3 Zrotation Xrotation Yrotation
						JOINT LeftUpperArm
						{
							OFFSET 0.156 -0.02 0.03	
							CHANNELS 3 Zrotation Xrotation Yrotation
							JOINT LeftForeArm
							{
								OFFSET 0.035 -0.27 -0.01	
								CHANNELS 3 Zrotation Xrotation Yrotation
								JOINT LeftHand
								{
									OFFSET 0.01 -0.27 0.01	
									CHANNELS 3 Zrotation Xrotation Yrotation
									End Site
									{
										OFFSET 0 -0.15 0
									}
								}
							}
						}
					}
					JOINT RightCollar
					{
						OFFSET 0 0.1 0	
						CHANNELS 3 Zrotation Xrotation Yrotation
						JOINT RightUpperArm
						{
							OFFSET -0.156 -0.02 0.03	
							CHANNELS 3 Zrotation Xrotation Yrotation
							JOINT RightForeArm
							{
								OFFSET -0.035 -0.27 -0.01	
								CHANNELS 3 Zrotation Xrotation Yrotation
								JOINT RightHand
								{
									OFFSET -0.01 -0.27 0.01	
									CHANNELS 3 Zrotation Xrotation Yrotation
									End Site
									{
										OFFSET 0 -0.15 0
									}
								}
							}
						}
					}
					JOINT Neck
					{
						OFFSET 0 0.1 0	
						CHANNELS 3 Zrotation Xrotation Yrotation
						JOINT Head
						{
							OFFSET 0 0.127 0.03	
							CHANNELS 3 Zrotation Xrotation Yrotation
							End Site
							{
								OFFSET 0 0.127 0.03
							}
						}
					}
				}
			}
		}
	}
	JOINT LeftHip
	{
		OFFSET 0 0 0	
		CHANNELS 3 Zrotation Xrotation Yrotation
		JOINT LeftThigh
		{
			OFFSET 0.088 -0.06 0	
			CHANNELS 3 Zrotation Xrotation Yrotation
			JOINT LeftLowerLeg
			{
				OFFSET 0 -0.39 0.02	
				CHANNELS 3 Zrotation Xrotation Yrotation
				JOINT LeftFootTop
				{
					OFFSET 0 -0.43 -0.02	
					CHANNELS 3 Zrotation Xrotation Yrotation
					JOINT LeftFootFront
					{
						OFFSET 0 -0.07 0.085	
						CHANNELS 3 Zrotation Xrotation Yrotation
						End Site
						{
							OFFSET 0 -0.005 0.09
						}
					}
				}
				JOINT LeftHeel
				{
					OFFSET 0 -0.43 -0.02	
					CHANNELS 3 Zrotation Xrotation Yrotation
					End Site
					{
						OFFSET 0 -0.075 -0.05
					}
				}
			}
		}
	}
	JOINT RightHip
	{
		OFFSET 0 0 0	
		CHANNELS 3 Zrotation Xrotation Yrotation
		JOINT RightThigh
		{
			OFFSET -0.088 -0.06 0	
			CHANNELS 3 Zrotation Xrotation Yrotation
			JOINT RightLowerLeg
			{
				OFFSET 0 -0.39 0.02	
				CHANNELS 3 Zrotation Xrotation Yrotation
				JOINT RightFootTop
				{
					OFFSET 0 -0.43 -0.02	
					CHANNELS 3 Zrotation Xrotation Yrotation
					JOINT RightFootFront
					{
						OFFSET 0 -0.07 0.085	
						CHANNELS 3 Zrotation Xrotation Yrotation
						End Site
						{
							OFFSET 0 -0.005 0.09
						}
					}
				}
				JOINT RightHeel
				{
					OFFSET 0 -0.43 -0.02	
					CHANNELS 3 Zrotation Xrotation Yrotation
					End Site
					{
						OFFSET 0 -0.075 -0.05
					}
				}
			}
		}
	}
}
MOTION
Frames: 27
Frame Time: 0.05
0 0.955 0 -0 0 -0 -0 0 -0 -0 0 -0 3.3495 6.8286 23.315 -0 0 -0 -0 0 -0 3.1482 -31.906 3.0711 -94.84 -10.468 -14.101 -0 0 -0 -0 0 -0 -12.385 -36.245 15.611 -2.6968 -71.157 13.042 -0 0 -0 -2.9767 -9.8128 5.3549 -2.9767 -9.8128 5.3549 -0 0 -0 -0 0 -0 -0 0 -0 -0 0 -0 -0 0 -0 -0 0 -0 -0 0 -0 -0 0 -0 -0 0 -0 -0 0 -0 -0 0 -0 -0 0 -0 
0 0.955 0 -0 0 -0 -0 0 -0 -0 0 -0 3.3618 6.7125 23.237 -0 0 -0 -0 0 -0 1.8197 -33.483 0.48315 -96.591 -10.467 -9.1864 -0 0 -0 -0 0 -0 -9.7119 -37.726 20.006 -13.83 -70.796 4.4611 -0 0 -0 -3.1415 -10.258 5.0358 -3.1415 -10.258 5.0358 -0 0 -0 -0 0 -0 -0 0 -0 -0 0 -0 -0 0 -0 -0 0 -0 -0 0 -0 -0 0 -0 -0 0 -0 -0 0 -0 -0 0 -0 -0 0 -0 
0 0.955 0 -0 0 -0 -0 0 -0 -0 0 -0 3.3438 6.76 23.362 -0 0 -0 -0 0 -0 1.5163 -33.884 -0.27301 -99.617 -9.3476 -6.6741 -0 0 -0 -0 0 -0 -7.7288 -38.554 23.131 -23.166 -71.032 -2.2522 -0 0 -0 -3.3868 -10.818 4.5916 -3.3868 -10.818 4.5916 -0 0 -0 -0 0 -0 -0 0 -0 -0 0 -0 -0 0 -0 -0 0 -0 -0 0 -0 -0 0 -0 -0 0 -0 -0 0 -0 -0 0 -0 -0 0 -0 
0 0.955 0 -0 0 -0 -0 0 -0 -0 0 -0 3.3306 6.9636 23.721 -0 0 -0 -0 0 -0 1.1547 -34.093 -0.75364 -102.18 -8.531 -7.9157 -0 0 -0 -0 0 -0 -6.6047 -38.922 23.846 -29.835 -72.413 -6.368 -0 0 -0 -3.7356 -11.465 4.0453 -3.7356 -11.465 4.0453 -0 0 -0 -0 0 -0 -0 0 -0 -0 0 -0 -0 0 -0 -0 0 -0 -0 0 -0 -0 0 -0 -0 0 -0 -0 0 -0 -0 0 -0 -0 0 -0 
0 0.955 0 -0 0 -0 -0 0 -0 -0 0 -0 3.2281 7.069 24.018 -0 0 -0 -0 0 -0 0.81071 -33.915 -1.1724 -104.87 -7.4956 -9.6796 -0 0 -0 -0 0 -0 -6.0255 -38.984 22.828 -37.441 -74.618 -12.48 -0 0 -0 -4.0328 -12.077 3.6289 -4.0328 -12.077 3.6289 -0 0 -0 -0 0 -0 -0 0 -0 -0 0 -0 -0 0 -0 -0 0 -0 -0 0 -0 -0 0 -0 -0 0 -0 -0 0 -0 -0 0 -0 -0 0 -0 
0 0.955 0 -0 0 -0 -0 0 -0 -0 0 -0 3.1351 6.9721 24.037 -0 0 -0 -0 0 -0 0.41124 -33.535 -1.89 -107.37 -6.5415 -11.014 -0 0 -0 -0 0 -0 -5.3626 -38.773 21.595 -45.833 -76.216 -21.162 -0 0 -0 -4.1974 -12.463 3.4649 -4.1974 -12.463 3.4649 -0 0 -0 -0 0 -0 -0 0 -0 -0 0 -0 -0 0 -0 -0 0 -0 -0 0 -0 -0 0 -0 -0 0 -0 -0 0 -0 -0 0 -0 -0 0 -0 
0 0.955 0 -0 0 -0 -0 0 -0 -0 0 -0 2.9884 6.8184 23.879 -0 0 -0 -0 0 -0 -0.2007 -32.947 -3.0521 -108.78 -5.6407 -11.643 -0 0 -0 -0 0 -0 -4.6977 -38.288 20.786 -55.585 -76.958 -33.411 -0 0 -0 -4.2223 -12.648 3.4049 -4.2223 -12.648 3.4049 -0 0 -0 -0 0 -0 -0 0 -0 -0 0 -0 -0 0 -0 -0 0 -0 -0 0 -0 -0 0 -0 -0 0 -0 -0 0 -0 -0 0 -0 -0 0 -0 
0 0.955 0 -0 0 -0 -0 0 -0 -0 0 -0 2.6786 6.6683 23.725 -0 0 -0 -0 0 -0 -0.62564 -32.165 -4.2052 -108.66 -4.3345 -11.309 -0 0 -0 -0 0 -0 -4.2252 -37.923 20.145 -62.065 -77.03 -45.548 -0 0 -0 -4.1067 -12.697 3.2997 -4.1067 -12.697 3.2997 -0 0 -0 -0 0 -0 -0 0 -0 -0 0 -0 -0 0 -0 -0 0 -0 -0 0 -0 -0 0 -0 -0 0 -0 -0 0 -0 -0 0 -0 -0 0 -0 
0 0.955 0 -0 0 -0 -0 0 -0 -0 0 -0 2.2984 6.5879 23.428 -0 0 -0 -0 0 -0 -0.76746 -31.724 -4.9893 -107.79 -2.8966 -10.62 -0 0 -0 -0 0 -0 -4.0215 -37.76 19.888 -61.919 -77.011 -54.25 -0 0 -0 -3.8421 -12.659 3.2919 -3.8421 -12.659 3.2919 -0 0 -0 -0 0 -0 -0 0 -0 -0 0 -0 -0 0 -0 -0 0 -0 -0 0 -0 -0 0 -0 -0 0 -0 -0 0 -0 -0 0 -0 -0 0 -0 
0 0.955 0 -0 0 -0 -0 0 -0 -0 0 -0 1.9375 6.5508 22.99 -0 0 -0 -0 0 -0 -0.6599 -31.666 -5.7428 -106.86 -2.3329 -10.076 -0 0 -0 -0 0 -0 -4.009 -37.625 20.046 -53.884 -77.472 -57.836 -0 0 -0 -3.5229 -12.62 3.3686 -3.5229 -12.62 3.3686 -0 0 -0 -0 0 -0 -0 0 -0 -0 0 -0 -0 0 -0 -0 0 -0 -0 0 -0 -0 0 -0 -0 0 -0 -0 0 -0 -0 0 -0 -0 0 -0 
0 0.955 0 -0 0 -0 -0 0 -0 -0 0 -0 1.6601 6.6827 22.408 -0 0 -0 -0 0 -0 -0.70422 -31.85 -6.5429 -105.82 -3.1742 -12.591 -0 0 -0 -0 0 -0 -4.0574 -37.214 20.125 -40.237 -78.609 -56.901 -0 0 -0 -3.3363 -12.805 3.4705 -3.3363 -12.805 3.4705 -0 0 -0 -0 0 -0 -0 0 -0 -0 0 -0 -0 0 -0 -0 0 -0 -0 0 -0 -0 0 -0 -0 0 -0 -0 0 -0 -0 0 -0 -0 0 -0 
0 0.955 0 -0 0 -0 -0 0 -0 -0 0 -0 1.3826 6.9522 21.917 -0 0 -0 -0 0 -0 -0.64764 -32.361 -7.1466 -105.11 -5.1899 -17.562 -0 0 -0 -0 0 -0 -4.1547 -36.76 19.663 -21.814 -79.815 -50.234 -0 0 -0 -3.2984 -13.344 3.4628 -3.2984 -13.344 3.4628 -0 0 -0 -0 0 -0 -0 0 -0 -0 0 -0 -0 0 -0 -0 0 -0 -0 0 -0 -0 0 -0 -0 0 -0 -0 0 -0 -0 0 -0 -0 0 -0 
0 0.955 0 -0 0 -0 -0 0 -0 -0 0 -0 1.2418 7.2485 21.629 -0 0 -0 -0 0 -0 -0.87621 -33.132 -8.0306 -104.71 -8.5853 -23.248 -0 0 -0 -0 0 -0 -4.6787 -36.347 18.838 -4.3231 -80.265 -42.093 -0 0 -0 -3.4497 -14.194 3.2264 -3.4497 -14.194 3.2264 -0 0 -0 -0 0 -0 -0 0 -0 -0 0 -0 -0 0 -0 -0 0 -0 -0 0 -0 -0 0 -0 -0 0 -0 -0 0 -0 -0 0 -0 -0 0 -0 
0 0.955 0 -0 0 -0 -0 0 -0 -0 0 -0 1.184 7.5837 21.167 -0 0 -0 -0 0 -0 -1.112 -34.251 -8.8272 -105.13 -12.391 -28.38 -0 0 -0 -0 0 -0 -5.0966 -36.084 18.708 8.4508 -79.835 -36.675 -0 0 -0 -3.7767 -15.335 2.8659 -3.7767 -15.335 2.8659 -0 0 -0 -0 0 -0 -0 0 -0 -0 0 -0 -0 0 -0 -0 0 -0 -0 0 -0 -0 0 -0 -0 0 -0 -0 0 -0 -0 0 -0 -0 0 -0 
0 0.955 0 -0 0 -0 -0 0 -0 -0 0 -0 0.98711 7.8713 20.544 -0 0 -0 -0 0 -0 -1.0174 -35.823 -9.3456 -106.39 -15.48 -32.806 -0 0 -0 -0 0 -0 -5.3281 -36.084 18.967 16.745 -79.023 -32.99 -0 0 -0 -4.1447 -16.62 2.3589 -4.1447 -16.62 2.3589 -0 0 -0 -0 0 -0 -0 0 -0 -0 0 -0 -0 0 -0 -0 0 -0 -0 0 -0 -0 0 -0 -0 0 -0 -0 0 -0 -0 0 -0 -0 0 -0 
0 0.955 0 -0 0 -0 -0 0 -0 -0 0 -0 0.76732 8.1557 19.976 -0 0 -0 -0 0 -0 -0.89718 -37.799 -9.7647 -107.7 -17.92 -36.772 -0 0 -0 -0 0 -0 -5.406 -36.26 18.808 22.049 -78.431 -28.917 -0 0 -0 -4.5304 -17.759 1.6526 -4.5304 -17.759 1.6526 -0 0 -0 -0 0 -0 -0 0 -0 -0 0 -0 -0 0 -0 -0 0 -0 -0 0 -0 -0 0 -0 -0 0 -0 -0 0 -0 -0 0 -0 -0 0 -0 
0 0.955 0 -0 0 -0 -0 0 -0 -0 0 -0 0.43645 8.4167 19.286 -0 0 -0 -0 0 -0 -0.66497 -40.18 -9.7215 -108.69 -20.103 -39.488 -0 0 -0 -0 0 -0 -5.228 -36.506 17.929 26.774 -78.671 -24.27 -0 0 -0 -4.776 -18.612 0.97816 -4.776 -18.612 0.97816 -0 0 -0 -0 0 -0 -0 0 -0 -0 0 -0 -0 0 -0 -0 0 -0 -0 0 -0 -0 0 -0 -0 0 -0 -0 0 -0 -0 0 -0 -0 0 -0 
0 0.955 0 -0 0 -0 -0 0 -0 -0 0 -0 0.22446 8.5487 18.806 -0 0 -0 -0 0 -0 -1.1536 -42.502 -9.9811 -109.37 -22.3 -41.293 -0 0 -0 -0 0 -0 -5.757 -36.922 15.971 29.669 -79.75 -22.374 -0 0 -0 -4.9975 -19.118 0.28395 -4.9975 -19.118 0.28395 -0 0 -0 -0 0 -0 -0 0 -0 -0 0 -0 -0 0 -0 -0 0 -0 -0 0 -0 -0 0 -0 -0 0 -0 -0 0 -0 -0 0 -0 -0 0 -0 
0 0.955 0 -0 0 -0 -0 0 -0 -0 0 -0 0.24221 8.667 18.292 -0 0 -0 -0 0 -0 -1.9965 -44.278 -10.609 -110.22 -24.137 -43.28 -0 0 -0 -0 0 -0 -6.4808 -37.296 14.488 30.752 -81.422 -23.999 -0 0 -0 -5.2761 -19.41 -0.23779 -5.2761 -19.41 -0.23779 -0 0 -0 -0 0 -0 -0 0 -0 -0 0 -0 -0 0 -0 -0 0 -0 -0 0 -0 -0 0 -0 -0 0 -0 -0 0 -0 -0 0 -0 -0 0 -0 
0 0.955 0 -0 0 -0 -0 0 -0 -0 0 -0 0.26807 8.8556 17.708 -0 0 -0 -0 0 -0 -2.7137 -45.765 -11.022 -111.27 -25.512 -45.751 -0 0 -0 -0 0 -0 -7.1275 -37.665 13.207 32.414 -83.557 -22.843 -0 0 -0 -5.5009 -19.632 -0.48675 -5.5009 -19.632 -0.48675 -0 0 -0 -0 0 -0 -0 0 -0 -0 0 -0 -0 0 -0 -0 0 -0 -0 0 -0 -0 0 -0 -0 0 -0 -0 0 -0 -0 0 -0 -0 0 -0 
0 0.955 0 -0 0 -0 -0 0 -0 -0 0 -0 0.24173 9.0272 17.155 -0 0 -0 -0 0 -0 -3.5726 -46.69 -11.64 -112.28 -26.519 -48.348 -0 0 -0 -0 0 -0 -8.3409 -38.051 11.267 37.843 -85.438 -14.986 -0 0 -0 -5.6387 -19.86 -0.52576 -5.6387 -19.86 -0.52576 -0 0 -0 -0 0 -0 -0 0 -0 -0 0 -0 -0 0 -0 -0 0 -0 -0 0 -0 -0 0 -0 -0 0 -0 -0 0 -0 -0 0 -0 -0 0 -0 
0 0.955 0 -0 0 -0 -0 0 -0 -0 0 -0 0.23436 9.0036 16.639 -0 0 -0 -0 0 -0 -4.2186 -47.053 -11.915 -113.26 -26.767 -49.788 -0 0 -0 -0 0 -0 -9.5195 -37.924 9.3597 47.069 -86.514 -2.0879 -0 0 -0 -5.7032 -19.975 -0.33212 -5.7032 -19.975 -0.33212 -0 0 -0 -0 0 -0 -0 0 -0 -0 0 -0 -0 0 -0 -0 0 -0 -0 0 -0 -0 0 -0 -0 0 -0 -0 0 -0 -0 0 -0 -0 0 -0 
0 0.955 0 -0 0 -0 -0 0 -0 -0 0 -0 -0.14173 8.9852 15.556 -0 0 -0 -0 0 -0 -3.3431 -47.538 -10.555 -114.01 -26.338 -48.693 -0 0 -0 -0 0 -0 -9.3625 -37.626 8.9091 61.024 -86.927 14.052 -0 0 -0 -5.3213 -20.135 0.37572 -5.3213 -20.135 0.37571 -0 0 -0 -0 0 -0 -0 0 -0 -0 0 -0 -0 0 -0 -0 0 -0 -0 0 -0 -0 0 -0 -0 0 -0 -0 0 -0 -0 0 -0 -0 0 -0 
0 0.955 0 -0 0 -0 -0 0 -0 -0 0 -0 -0.051435 8.8907 15.034 -0 0 -0 -0 0 -0 -2.7865 -47.825 -9.486 -114.41 -25.513 -45.092 -0 0 -0 -0 0 -0 -9.8985 -37.071 8.1184 66.897 -87.077 21.054 -0 0 -0 -5.1902 -20.142 0.83234 -5.1902 -20.142 0.83234 -0 0 -0 -0 0 -0 -0 0 -0 -0 0 -0 -0 0 -0 -0 0 -0 -0 0 -0 -0 0 -0 -0 0 -0 -0 0 -0 -0 0 -0 -0 0 -0 
0 0.955 0 -0 0 -0 -0 0 -0 -0 0 -0 0.066781 8.719 14.51 -0 0 -0 -0 0 -0 -1.9112 -48.313 -8.4102 -114.46 -24.475 -39.828 -0 0 -0 -0 0 -0 -10.308 -36.782 7.6556 69.234 -86.687 23.177 -0 0 -0 -5.0335 -20.009 1.219 -5.0335 -20.009 1.219 -0 0 -0 -0 0 -0 -0 0 -0 -0 0 -0 -0 0 -0 -0 0 -0 -0 0 -0 -0 0 -0 -0 0 -0 -0 0 -0 -0 0 -0 -0 0 -0 
0 0.955 0 -0 0 -0 -0 0 -0 -0 0 -0 0.027046 8.5881 14.192 -0 0 -0 -0 0 -0 -1.3027 -49.026 -8.0228 -114.28 -23.827 -35.227 -0 0 -0 -0 0 -0 -10.553 -36.782 7.1786 69.18 -86.524 22.258 -0 0 -0 -4.8669 -19.84 1.3765 -4.8669 -19.84 1.3765 -0 0 -0 -0 0 -0 -0 0 -0 -0 0 -0 -0 0 -0 -0 0 -0 -0 0 -0 -0 0 -0 -0 0 -0 -0 0 -0 -0 0 -0 -0 0 -0 
0 0.955 0 -0 0 -0 -0 0 -0 -0 0 -0 0.016659 8.393 14.022 -0 0 -0 -0 0 -0 -0.70845 -49.795 -7.3176 -114.22 -22.83 -31.082 -0 0 -0 -0 0 -0 -10.581 -36.957 6.9105 66.893 -86.808 18.981 -0 0 -0 -4.7906 -19.569 1.3191 -4.7906 -19.569 1.3191 -0 0 -0 -0 0 -0 -0 0 -0 -0 0 -0 -0 0 -0 -0 0 -0 -0 0 -0 -0 0 -0 -0 0 -0 -0 0 -0 -0 0 -0 -0 0 -0 
